<svg width="218" height="60" viewBox="0 0 218 60" fill="none" xmlns="http://www.w3.org/2000/svg">
<path d="M54.7591 0.0617027L59.7417 8.25409C59.7826 8.32165 59.8039 8.39803 59.8033 8.47562C59.8027 8.55322 59.7803 8.62931 59.7383 8.6963C59.6963 8.7633 59.6362 8.81886 59.564 8.85745C59.4917 8.89604 59.4099 8.91631 59.3267 8.91623H23.5348C23.4487 8.91688 23.3643 8.9393 23.2908 8.98109C23.2173 9.02289 23.1573 9.08249 23.1172 9.15355L10.848 29.8576C10.8085 29.9236 10.7878 29.998 10.7878 30.0736C10.7878 30.1492 10.8085 30.2235 10.848 30.2895L23.2496 50.9366C23.2909 51.0053 23.3512 51.0624 23.4242 51.1021C23.4972 51.1417 23.5802 51.1624 23.6646 51.1621H39.1164C39.2025 51.1612 39.2867 51.1387 39.3601 51.0969C39.4336 51.0551 39.4937 50.9957 39.534 50.9248L49.4634 34.2101C49.5037 34.1392 49.5637 34.0798 49.6372 34.038C49.7107 33.9962 49.7949 33.9737 49.881 33.9728H60.1821C60.2644 33.9731 60.3452 33.9533 60.4167 33.9154C60.4882 33.8775 60.5477 33.8228 60.5895 33.7568L63.1024 29.8552C63.1476 29.7824 63.1697 29.6992 63.1661 29.6152C63.1625 29.5311 63.1334 29.4498 63.0821 29.3806L60.2356 25.6072C60.1918 25.5487 60.1336 25.5009 60.0658 25.4678C59.9979 25.4348 59.9226 25.4174 59.8461 25.4173H33.9556C33.8744 25.4174 33.7946 25.4369 33.7238 25.4738C33.6529 25.5108 33.5934 25.564 33.5508 25.6285L30.6611 29.9692C30.6081 30.048 30.583 30.1403 30.5894 30.2332C30.5958 30.326 30.6334 30.4146 30.6967 30.4865L33.5915 33.7402C33.6368 33.7897 33.693 33.8295 33.7563 33.8569C33.8195 33.8844 33.8884 33.8988 33.9582 33.8992H38.6428C38.7256 33.8992 38.8069 33.9192 38.8788 33.9574C38.9506 33.9956 39.0106 34.0506 39.0527 34.1169C39.0949 34.1833 39.1178 34.2587 39.1191 34.3358C39.1204 34.4129 39.1002 34.489 39.0604 34.5566L34.4496 42.4405C34.4095 42.5115 34.3495 42.5711 34.276 42.6129C34.2024 42.6547 34.1181 42.6771 34.032 42.6778H28.8305C28.7483 42.6778 28.6676 42.6579 28.5961 42.6201C28.5247 42.5822 28.4651 42.5277 28.4231 42.4618L20.6756 30.3584C20.6323 30.2905 20.6095 30.213 20.6095 30.1341C20.6095 30.0552 20.6323 29.9777 20.6756 29.9098L28.3366 17.5097C28.3789 17.4427 28.4392 17.3872 28.5115 17.3485C28.5838 17.3098 28.6656 17.2893 28.749 17.289H64.8159C64.8995 17.2896 64.9815 17.3104 65.0538 17.3495C65.1262 17.3887 65.1863 17.4447 65.2283 17.5121L72.9351 29.9929C72.9776 30.061 73 30.1384 73 30.2171C73 30.2959 72.9776 30.3733 72.9351 30.4414L65.0552 42.6422C65.0129 42.7077 64.9532 42.762 64.8818 42.7998C64.8105 42.8377 64.7299 42.8577 64.6479 42.8582H54.8457C54.7596 42.8588 54.6753 42.8812 54.6017 42.923C54.5282 42.9648 54.4682 43.0244 54.4281 43.0955L44.6183 59.7627C44.5789 59.8337 44.5194 59.8934 44.4463 59.9352C44.3732 59.977 44.2891 59.9994 44.2033 60H18.6668C18.5831 59.9999 18.5009 59.9792 18.4284 59.9401C18.356 59.9009 18.296 59.8446 18.2543 59.7769L0.0630521 30.3299C0.0217363 30.2627 0 30.1866 0 30.1092C0 30.0317 0.0217363 29.9556 0.0630521 29.8885L18.2111 0.223084C18.2527 0.15538 18.3127 0.0991056 18.3852 0.0599391C18.4576 0.0207726 18.5398 9.78557e-05 18.6235 0H54.7413L54.7591 0.0617027Z" fill="url(#paint0_linear_77_19)"/>
<path d="M87.0189 41.028V20.172L91.9909 15.2H106.687L111.571 20.084V24.132H106.467V21.888L104.135 19.6H94.6309L92.1229 22.064V39.136L94.6309 41.6H104.135L106.599 39.18V33.592H99.8669V29.192H111.571V41.028L106.599 46H91.9909L87.0189 41.028ZM118.61 41.644V28.312H114.65V24.088H118.698V16.96H123.582V24.088H130.314V28.312H123.582V40.06L125.298 41.776H130.314V46H122.966L118.61 41.644ZM134.505 24.088H139.125V27.828L142.777 24.088H148.849V28.356H143.877L139.477 32.844V46H134.505V24.088ZM150.608 41.6V28.488L154.964 24.088H167.108L171.508 28.488V41.6L167.108 46H154.964L150.608 41.6ZM164.776 41.82L166.536 40.06V30.028L164.776 28.268H157.34L155.58 30.028V40.06L157.34 41.82H164.776ZM176.786 24.088H181.406V28.092L185.41 24.088H192.362L196.982 28.708V46H192.01V30.072L190.294 28.356H186.334L181.758 32.976V46H176.786V24.088Z" fill="white"/>
<path d="M206.61 13.66V14.776H204.39V22H203.022V14.776H200.79V13.66H206.61ZM216.78 13.66V22H215.412V16.288L212.868 22H211.92L209.364 16.288V22H207.996V13.66H209.472L212.4 20.2L215.316 13.66H216.78Z" fill="white"/>
<defs>
<linearGradient id="paint0_linear_77_19" x1="-5.69586" y1="41.3834" x2="84.657" y2="-8.42489" gradientUnits="userSpaceOnUse">
<stop stop-color="#9289FE"/>
<stop offset="0.503125" stop-color="#46E1FE"/>
<stop offset="1" stop-color="#62FCDB"/>
</linearGradient>
</defs>
</svg>
