<svg width="13" height="20" viewBox="0 0 13 20" fill="none" xmlns="http://www.w3.org/2000/svg">
<path d="M4.05001 9.09089V4.42422C2.81253 4.56978 1.87502 5.57578 1.87502 6.76356C1.87502 7.95133 2.81253 8.94556 4.05001 9.09089ZM7.07497 9.10311V4.41222H5.92503V9.10311H7.07497ZM7.07497 15.6122V10.9211H5.92503V15.612L7.07497 15.6122ZM11.125 13.2607C11.125 12.0729 10.1875 11.0789 8.94999 10.9333V15.6C10.1875 15.4544 11.125 14.4484 11.125 13.2607ZM8.94999 9.11511C11.2125 9.26067 13 11.0544 13 13.2607C13 15.4789 11.2125 17.2607 8.94999 17.4182V19.0909C8.94999 19.6 8.52489 20 8.01248 20C7.48747 20 7.07497 19.6 7.07497 19.0909V17.4302H5.92503V19.0909C5.92503 19.6 5.49993 20 4.98752 20C4.47511 20 4.05001 19.6 4.05001 19.0909V17.4302H2.35007C1.83766 17.4302 1.41257 17.018 1.41257 16.5211C1.41257 16.012 1.83766 15.612 2.35007 15.612H4.05001V10.9091C1.78748 10.7636 0 8.96978 0 6.76356C0 4.54533 1.78748 2.76356 4.05001 2.606V0.909111C4.05001 0.412222 4.47511 0 4.98752 0C5.49993 0 5.92503 0.412222 5.92503 0.909111V2.594H7.07497V0.909111C7.07497 0.412222 7.48747 0 8.01248 0C8.52489 0 8.94999 0.412222 8.94999 0.909111V2.594H10.6499C11.1623 2.594 11.5874 3.00622 11.5874 3.50311C11.5874 4.01222 11.1623 4.41222 10.6499 4.41222H8.94999V9.11511Z" fill="#9A9DAB"/>
</svg>
