<svg width="11" height="12" viewBox="0 0 11 12" fill="none" xmlns="http://www.w3.org/2000/svg">
<path d="M10.4091 0H4.20301C3.87804 0 3.61209 0.285762 3.61209 0.63442V3.87793H0.590948C0.265974 3.87793 0 4.16369 0 4.51235V11.3656C0 11.7147 0.265974 12 0.590948 12H6.79699C7.12196 12 7.38791 11.7147 7.38791 11.3656V8.12207H10.4091C10.734 8.12207 11 7.83676 11 7.48765V0.63442C11 0.285762 10.734 0 10.4091 0ZM9.46751 6.47679H7.38791V4.51235C7.38791 4.16369 7.12196 3.87793 6.79699 3.87793H5.14457V1.64528H9.46751V6.47679Z" fill="#778BA1"/>
</svg>
