<svg width="16" height="17" viewBox="0 0 16 17" fill="none" xmlns="http://www.w3.org/2000/svg">
<path d="M14 0H11C9.89543 0 9 0.89543 9 2V3C9 4.10457 9.89543 5 11 5H14C15.1046 5 16 4.10457 16 3V2C16 0.895431 15.1046 0 14 0Z" fill="white"/>
<path d="M0 8C0 9.10457 0.895431 10 2 10H5C6.10457 10 7 9.10457 7 8V6.72515V5.32164V2C7 0.89543 6.10457 0 5 0H2C0.89543 0 0 0.895431 0 2V8Z" fill="white"/>
<path d="M14 7H11C9.89543 7 9 7.89543 9 9V15C9 16.1046 9.89543 17 11 17H14C15.1046 17 16 16.1046 16 15V9C16 7.89543 15.1046 7 14 7Z" fill="white"/>
<path d="M5 12H2C0.895431 12 0 12.8954 0 14V15C0 16.1046 0.89543 17 2 17H5C6.10457 17 7 16.1046 7 15V14C7 12.8954 6.10457 12 5 12Z" fill="white"/>
</svg>
