<svg width="14" height="14" viewBox="0 0 14 14" fill="none" xmlns="http://www.w3.org/2000/svg">
<path d="M10.3517 0C10.262 0 10.1277 0.0669372 10.1277 0.156624V1.96962C10.1277 2.0593 10.262 2.12624 10.3517 2.12624C10.4414 2.12624 10.5757 2.0593 10.5757 1.96962V0.156624C10.5757 0.0669372 10.4414 0 10.3517 0ZM6.68115 0.102812C6.57222 0.105875 6.46809 0.145687 6.38978 0.223999C6.21085 0.402936 6.23316 0.716622 6.43441 0.917871L6.46678 0.950246L6.41166 1.02943L6.43572 1.00756L0.746539 9.63414C0.547917 9.4889 0.281045 9.48802 0.121359 9.64771C-0.057576 9.82664 -0.0352638 10.1403 0.165984 10.3416L3.65807 13.8337C3.85931 14.0354 4.173 14.0577 4.35193 13.8783C4.51162 13.7186 4.51074 13.4518 4.36549 13.2531L5.34679 12.6061L5.40411 12.6918C6.20997 13.7886 7.75433 14.0349 8.85113 13.2291L10.3285 12.1546C11.3667 11.413 11.6428 9.96927 10.9857 8.8869L13.0449 7.5289L13.0817 7.56565C13.2829 7.7669 13.5966 7.78965 13.7756 7.61028C13.9545 7.4309 13.9322 7.11766 13.7309 6.91641L7.08277 0.268186C6.96946 0.154874 6.82071 0.0984371 6.68028 0.102375L6.68115 0.102812ZM13.0677 0.817684C13.0305 0.815934 12.9959 0.825559 12.971 0.850934L11.6953 2.12668C11.6279 2.19405 11.673 2.32793 11.7399 2.3953C11.8068 2.46268 11.9416 2.5073 12.0085 2.43993L13.2843 1.16418C13.3516 1.09681 13.3066 0.962933 13.2396 0.895558C13.1976 0.853559 13.1294 0.820309 13.0677 0.817684ZM12.0304 3.42473C11.9407 3.42473 11.8738 3.55905 11.8738 3.64873C11.8738 3.73842 11.9407 3.87273 12.0304 3.87273H13.8434C13.9331 3.87273 14 3.73842 14 3.64873C14 3.55905 13.9331 3.42473 13.8434 3.42473H12.0304ZM10.1592 9.4329C10.5355 10.0922 10.3793 10.9515 9.74712 11.3938L8.2697 12.4683C7.59814 12.9381 6.65797 12.8038 6.1881 12.1327L6.14653 12.0793L10.1592 9.4329Z" fill="#6D1ED1"/>
</svg>
