<svg width="37" height="37" viewBox="0 0 37 37" fill="none" xmlns="http://www.w3.org/2000/svg">
<rect x="1" y="1" width="35" height="35" rx="6" fill="#E4DBF0" stroke="white" stroke-width="2"/>
<path d="M21.3517 11C21.262 11 21.1277 11.0669 21.1277 11.1566V12.9696C21.1277 13.0593 21.262 13.1262 21.3517 13.1262C21.4414 13.1262 21.5757 13.0593 21.5757 12.9696V11.1566C21.5757 11.0669 21.4414 11 21.3517 11ZM17.6812 11.1028C17.5722 11.1059 17.4681 11.1457 17.3898 11.224C17.2108 11.4029 17.2332 11.7166 17.4344 11.9179L17.4668 11.9502L17.4117 12.0294L17.4357 12.0076L11.7465 20.6341C11.5479 20.4889 11.281 20.488 11.1214 20.6477C10.9424 20.8266 10.9647 21.1403 11.166 21.3416L14.6581 24.8337C14.8593 25.0354 15.173 25.0577 15.3519 24.8783C15.5116 24.7186 15.5107 24.4518 15.3655 24.2531L16.3468 23.6061L16.4041 23.6918C17.21 24.7886 18.7543 25.0349 19.8511 24.2291L21.3285 23.1546C22.3667 22.413 22.6428 20.9693 21.9857 19.8869L24.0449 18.5289L24.0817 18.5657C24.2829 18.7669 24.5966 18.7897 24.7756 18.6103C24.9545 18.4309 24.9322 18.1177 24.7309 17.9164L18.0828 11.2682C17.9695 11.1549 17.8207 11.0984 17.6803 11.1024L17.6812 11.1028ZM24.0677 11.8177C24.0305 11.8159 23.9959 11.8256 23.971 11.8509L22.6953 13.1267C22.6279 13.1941 22.673 13.3279 22.7399 13.3953C22.8068 13.4627 22.9416 13.5073 23.0085 13.4399L24.2843 12.1642C24.3516 12.0968 24.3066 11.9629 24.2396 11.8956C24.1976 11.8536 24.1294 11.8203 24.0677 11.8177ZM23.0304 14.4247C22.9407 14.4247 22.8738 14.559 22.8738 14.6487C22.8738 14.7384 22.9407 14.8727 23.0304 14.8727H24.8434C24.9331 14.8727 25 14.7384 25 14.6487C25 14.559 24.9331 14.4247 24.8434 14.4247H23.0304ZM21.1592 20.4329C21.5355 21.0922 21.3793 21.9515 20.7471 22.3938L19.2697 23.4683C18.5981 23.9381 17.658 23.8038 17.1881 23.1327L17.1465 23.0793L21.1592 20.4329Z" fill="#6D1ED1"/>
</svg>
