<svg width="16" height="18" viewBox="0 0 16 18" fill="none" xmlns="http://www.w3.org/2000/svg">
<path d="M16 6.74881V6.75V6.75065V17.2493C16 17.6639 15.6584 18 15.239 18H0.760949C0.340689 18 0 17.6644 0 17.2495V0.750521C0 0.33602 0.340944 0 0.760764 0H9.144C9.14591 0 9.14781 6.91306e-06 9.14972 2.0715e-05L9.15187 3.56854e-05C9.57189 0.0033514 10.1459 0.237323 10.4457 0.53246L15.4591 5.46754C15.7575 5.76133 15.9995 6.33182 16 6.74881ZM8.38095 6.75345V1.5H1.52381V16.5H14.4762V7.5H9.13935C8.7205 7.5 8.38095 7.16317 8.38095 6.75345ZM4.19048 10.5C4.19048 10.0858 4.53265 9.75 4.94887 9.75H11.0511C11.47 9.75 11.8095 10.0829 11.8095 10.5C11.8095 10.9142 11.4673 11.25 11.0511 11.25H4.94887C4.53002 11.25 4.19048 10.9171 4.19048 10.5ZM4.19048 13.5C4.19048 13.0858 4.53265 12.75 4.94887 12.75H11.0511C11.47 12.75 11.8095 13.0829 11.8095 13.5C11.8095 13.9142 11.4673 14.25 11.0511 14.25H4.94887C4.53002 14.25 4.19048 13.9171 4.19048 13.5ZM9.90476 6H13.845L9.90476 2.12132V6Z" fill="#9A9DAB"/>
</svg>
