<svg width="16" height="16" viewBox="0 0 16 16" fill="none" xmlns="http://www.w3.org/2000/svg">
<path d="M11.3442 0C10.15 0 8.95485 0.452536 8.04772 1.35958L6.30928 3.09735C5.90018 3.49777 5.89623 4.15384 6.30162 4.5592C6.70603 4.96307 7.36316 4.95912 7.76362 4.54858L9.49909 2.81377C10.5337 1.77902 12.1533 1.77902 13.1879 2.81377C14.2225 3.84779 14.2225 5.46625 13.1879 6.50076L11.451 8.23753C11.0409 8.63746 11.0369 9.29502 11.4423 9.69889C11.8477 10.1047 12.5048 10.0993 12.9038 9.68876L14.6393 7.95297C16.4536 6.13937 16.4536 3.17368 14.6393 1.35983C13.7336 0.452536 12.5394 0 11.3442 0Z" fill="#9A9DAB"/>
<path d="M3.80198 6.00056C3.5357 6.0097 3.28227 6.12009 3.09578 6.31175L1.36053 8.04824C-0.45351 9.86055 -0.45351 12.8267 1.36053 14.6408C3.17457 16.4531 6.13869 16.4531 7.95273 14.6408L9.68946 12.9028C10.1 12.5029 10.1039 11.8455 9.6986 11.4412C9.29325 11.0379 8.63571 11.0413 8.23679 11.4518L6.50155 13.1873C5.46707 14.2212 3.84619 14.2212 2.81171 13.1873C1.77724 12.1527 1.77724 10.5343 2.81171 9.50045L4.54992 7.76347C5.22228 7.11047 4.73987 5.97117 3.80198 6.00056Z" fill="#9A9DAB"/>
<path d="M10.8071 4.00053C10.5073 4.01026 10.222 4.13624 10.0134 4.3526L4.33891 10.0241C3.88703 10.4766 3.88703 11.2094 4.33891 11.6613C4.79079 12.1132 5.52353 12.1132 5.97541 11.6596L11.6471 5.98642C12.4032 5.25197 11.8613 3.97022 10.8071 4.00053Z" fill="#9A9DAB"/>
</svg>
