<svg width="30" height="16" viewBox="0 0 30 16" fill="none" xmlns="http://www.w3.org/2000/svg">
<path d="M6.52761 0.00012207C4.37569 0.00012207 2.61724 1.7942 2.61724 3.9897C2.61724 5.2974 3.24654 6.40929 4.20583 7.09612C1.74128 8.06173 -0.0184539 10.4973 0.00014606 13.3402C0.00546128 13.6938 0.325666 14.0106 0.672241 14.0051C1.01882 13.9998 1.3293 13.673 1.32397 13.3194C1.3047 10.3738 3.59972 7.98848 6.48688 7.96882C8.20239 7.95715 9.81454 8.80625 10.7944 10.2233C9.36831 11.4545 8.45923 13.2897 8.47261 15.335C8.47793 15.6886 8.79813 16.0054 9.14471 15.9999C9.49128 15.9946 9.80177 15.6678 9.79643 15.3142C9.77716 12.3686 12.0722 9.98326 14.9593 9.96362C17.8465 9.94396 20.1844 12.3167 20.2037 15.2623C20.2135 15.6347 20.5561 15.9475 20.8656 15.9582C21.2051 15.9482 21.5279 15.6482 21.5275 15.2413C21.5144 13.2354 20.6172 11.4438 19.2261 10.2336C20.8028 7.95401 23.8391 7.27589 26.2016 8.75833C27.7435 9.72596 28.6745 11.4412 28.6762 13.2881C28.6762 13.6417 28.9915 13.9634 29.3381 13.9634C29.6847 13.9634 30 13.6417 30 13.2881C29.998 10.9816 28.8096 8.84466 26.8839 7.63626C26.5403 7.42069 26.1868 7.24138 25.8249 7.09597C26.7698 6.40234 27.3829 5.29045 27.3829 3.98956C27.3829 1.79406 25.6245 0 23.4725 0C21.3206 0 19.5622 1.79406 19.5622 3.98956C19.5622 5.28375 20.1821 6.39122 21.1304 7.08562C19.9571 7.5434 18.9126 8.35449 18.1467 9.46479C17.8951 9.32329 17.6329 9.19796 17.3626 9.09076C18.3009 8.3906 18.9104 7.2799 18.9104 5.98432C18.9104 3.78886 17.152 1.99477 15.0001 1.99477C12.8482 1.99477 11.0897 3.78886 11.0897 5.98432C11.0897 7.2816 11.716 8.3908 12.6681 9.09076C12.3907 9.19996 12.1215 9.31962 11.8636 9.46479C11.1097 8.37075 10.0579 7.55156 8.85957 7.08562C9.81236 6.39812 10.438 5.29205 10.438 3.98956C10.438 1.79406 8.67953 0.00012207 6.52761 0.00012207ZM15.0001 3.32476C16.4475 3.32476 17.607 4.50765 17.607 5.98445C17.607 7.46125 16.4475 8.64415 15.0001 8.64415C13.4796 8.66715 12.3987 7.48065 12.3932 5.98445C12.3932 4.50765 13.5526 3.32476 15.0001 3.32476Z" fill="#9A9DAB"/>
</svg>
