<svg width="19" height="18" viewBox="0 0 19 18" fill="none" xmlns="http://www.w3.org/2000/svg">
<path d="M1 16.96V16.4C1 13.96 3.40793 12 6.29745 12H12.7025C15.5921 12 18 13.96 18 16.4V17L16.5552 16.96V16.4C16.5552 14.6 14.8215 13.16 12.7025 13.16H6.29745C4.17847 13.16 2.44476 14.64 2.44476 16.4V16.96H1Z" fill="#9A9DAB" stroke="#9A9DAB"/>
<path d="M9.47619 1C12 1 14 3 14 5.52381C14 8 12 10 9.47619 10C7 10 5 8 5 5.52381C5 3 7 1 9.47619 1ZM9.47619 2.42857C7.7619 2.42857 6.38095 3.80952 6.38095 5.52381C6.38095 7.2381 7.7619 8.61905 9.47619 8.61905C11.1905 8.61905 12.5714 7.2381 12.5714 5.52381C12.5714 3.80952 11.1905 2.42857 9.47619 2.42857Z" fill="#9A9DAB" stroke="#9A9DAB"/>
</svg>
