<svg width="12" height="12" viewBox="0 0 12 12" fill="none" xmlns="http://www.w3.org/2000/svg">
<path d="M5.09593 1.22726e-05C4.29147 0.000377432 3.49852 0.191163 2.78189 0.556775C2.06526 0.922387 1.44529 1.45245 0.972662 2.10363C0.500035 2.75481 0.188165 3.50862 0.0625439 4.30345C-0.063077 5.09828 0.00111744 5.91157 0.24988 6.67683C0.498643 7.4421 0.924912 8.13761 1.49384 8.70653C2.06278 9.27544 2.75822 9.70161 3.52333 9.95019C4.28845 10.1988 5.10151 10.2627 5.89605 10.1368C6.6906 10.0109 7.44408 9.69865 8.0949 9.22566L10.634 11.7656C10.7841 11.9157 10.9876 12 11.1998 12C11.412 12 11.6156 11.9157 11.7656 11.7656C11.9157 11.6155 12 11.4119 12 11.1996C12 10.9873 11.9157 10.7837 11.7656 10.6336L9.22651 8.0937C9.77994 7.33277 10.1119 6.4334 10.1857 5.49529C10.2594 4.55718 10.0721 3.61696 9.64432 2.77884C9.2166 1.94073 8.56522 1.23745 7.7624 0.746969C6.95957 0.256485 6.03665 -0.00205261 5.09593 1.22726e-05ZM5.09593 8.59968C4.40394 8.59968 3.72748 8.39442 3.1521 8.00985C2.57673 7.62528 2.12828 7.07868 1.86347 6.43916C1.59865 5.79964 1.52936 5.09593 1.66436 4.41703C1.79937 3.73812 2.13259 3.1145 2.62191 2.62504C3.11122 2.13557 3.73465 1.80224 4.41335 1.6672C5.09205 1.53216 5.79554 1.60147 6.43486 1.86636C7.07418 2.13126 7.62062 2.57985 8.00507 3.1554C8.38953 3.73095 8.59473 4.40761 8.59473 5.09982C8.59367 6.02772 8.22471 6.9173 7.56879 7.57343C6.91286 8.22955 6.02355 8.59863 5.09593 8.59968Z" fill="#778BA1"/>
</svg>
