<svg width="20" height="27" viewBox="0 0 20 27" fill="none" xmlns="http://www.w3.org/2000/svg">
<path d="M6.31969 2.17241C6.6039 0.928559 7.72401 0 9.0625 0H10.9375C12.276 0 13.3961 0.928559 13.6803 2.17241H17.5C18.8807 2.17241 20 3.28398 20 4.65517V24.5172C20 25.8884 18.8807 27 17.5 27H2.5C1.11929 27 0 25.8884 0 24.5172V4.65517C0 3.28398 1.11929 2.17241 2.5 2.17241H6.31969ZM6.25 4.65517H2.5V24.5172H17.5V4.65517H13.75V6.82759H6.25V4.65517ZM11.875 4.96552V2.7931C11.875 2.27891 11.4553 1.86207 10.9375 1.86207H9.0625C8.54473 1.86207 8.125 2.27891 8.125 2.7931V4.96552H11.875Z" fill="#9A9DAB"/>
<path fill-rule="evenodd" clip-rule="evenodd" d="M4 9C4 8.44772 4.44772 8 5 8H10C10.5523 8 11 8.44772 11 9C11 9.55228 10.5523 10 10 10H5C4.44772 10 4 9.55228 4 9Z" fill="#9A9DAB"/>
<path fill-rule="evenodd" clip-rule="evenodd" d="M4 13C4 12.4477 4.44772 12 5 12H13C13.5523 12 14 12.4477 14 13C14 13.5523 13.5523 14 13 14H5C4.44772 14 4 13.5523 4 13Z" fill="#9A9DAB"/>
<path fill-rule="evenodd" clip-rule="evenodd" d="M4 17C4 16.4477 4.44772 16 5 16H13C13.5523 16 14 16.4477 14 17C14 17.5523 13.5523 18 13 18H5C4.44772 18 4 17.5523 4 17Z" fill="#9A9DAB"/>
<path fill-rule="evenodd" clip-rule="evenodd" d="M4 21C4 20.4477 4.44772 20 5 20H13C13.5523 20 14 20.4477 14 21C14 21.5523 13.5523 22 13 22H5C4.44772 22 4 21.5523 4 21Z" fill="#9A9DAB"/>
</svg>
