<svg width="26" height="26" viewBox="0 0 26 26" fill="none" xmlns="http://www.w3.org/2000/svg">
<path d="M26 13V14.8571C26 16.0661 25.2209 17.0876 24.1429 17.472V19.5C24.1429 22.0601 22.0601 24.1429 19.5 24.1429H16.5434C16.159 25.2209 15.1376 26 13.9286 26H12.0714C10.5356 26 9.28571 24.7501 9.28571 23.2143C9.28571 21.6784 10.5356 20.4286 12.0714 20.4286H13.9286C15.1376 20.4286 16.159 21.2076 16.5434 22.2857H19.5C21.0359 22.2857 22.2857 21.0359 22.2857 19.5V17.472C21.2076 17.0876 20.4286 16.0661 20.4286 14.8571V13C20.4286 11.8049 21.1891 10.7919 22.2476 10.3972C21.866 5.62529 17.8685 1.85714 13 1.85714C8.1315 1.85714 4.134 5.62529 3.75236 10.3972C4.81186 10.7919 5.57143 11.8049 5.57143 13V14.8571C5.57143 16.393 4.32157 17.6429 2.78571 17.6429C1.24986 17.6429 0 16.393 0 14.8571V13C0 11.7771 0.797643 10.7464 1.89614 10.3731C2.2945 4.58807 7.11564 0 13 0C18.8844 0 23.7055 4.58807 24.1039 10.3731C25.2024 10.7464 26 11.7761 26 13Z" fill="#9A9DAB"/>
</svg>
