<svg width="10" height="10" viewBox="0 0 10 10" fill="none" xmlns="http://www.w3.org/2000/svg">
<path d="M7.72727 0H2.27273C1.97427 0 1.67873 0.0587858 1.40299 0.173001C1.12725 0.287216 0.876709 0.454624 0.665666 0.665666C0.239447 1.09189 0 1.66996 0 2.27273V5.90909C0 6.51186 0.239447 7.08993 0.665666 7.51615C0.876709 7.72719 1.12725 7.8946 1.40299 8.00882C1.67873 8.12303 1.97427 8.18182 2.27273 8.18182H7.72727C8.02573 8.18182 8.32127 8.12303 8.59701 8.00882C8.87275 7.8946 9.12329 7.72719 9.33433 7.51615C9.54538 7.30511 9.71278 7.05457 9.827 6.77883C9.94121 6.50309 10 6.20755 10 5.90909V2.27273C10 1.97427 9.94121 1.67873 9.827 1.40299C9.71278 1.12725 9.54538 0.876709 9.33433 0.665666C9.12329 0.454624 8.87275 0.287216 8.59701 0.173001C8.32127 0.0587858 8.02573 0 7.72727 0ZM6.23182 3.50455C6.18956 3.54715 6.13929 3.58096 6.0839 3.60404C6.02851 3.62712 5.9691 3.639 5.90909 3.639C5.84909 3.639 5.78967 3.62712 5.73428 3.60404C5.67889 3.58096 5.62862 3.54715 5.58636 3.50455L5.45455 3.36818V5.90909C5.45455 6.02964 5.40666 6.14526 5.32141 6.2305C5.23617 6.31575 5.12055 6.36364 5 6.36364C4.87945 6.36364 4.76383 6.31575 4.67859 6.2305C4.59334 6.14526 4.54545 6.02964 4.54545 5.90909V3.36818L4.41364 3.50455C4.32804 3.59014 4.21196 3.63822 4.09091 3.63822C3.96986 3.63822 3.85377 3.59014 3.76818 3.50455C3.68259 3.41895 3.6345 3.30286 3.6345 3.18182C3.6345 3.06077 3.68259 2.94468 3.76818 2.85909L4.67727 1.95C4.71953 1.9074 4.7698 1.87358 4.82519 1.8505C4.88058 1.82743 4.93999 1.81555 5 1.81555C5.06001 1.81555 5.11942 1.82743 5.17481 1.8505C5.2302 1.87358 5.28047 1.9074 5.32273 1.95L6.23182 2.85909C6.27442 2.90135 6.30824 2.95162 6.33131 3.00701C6.35439 3.0624 6.36627 3.12181 6.36627 3.18182C6.36627 3.24182 6.35439 3.30124 6.33131 3.35663C6.30824 3.41202 6.27442 3.46229 6.23182 3.50455ZM7.72727 10H2.27273C2.15217 10 2.03656 9.95211 1.95132 9.86687C1.86607 9.78162 1.81818 9.66601 1.81818 9.54545C1.81818 9.4249 1.86607 9.30929 1.95132 9.22404C2.03656 9.1388 2.15217 9.09091 2.27273 9.09091H7.72727C7.84783 9.09091 7.96344 9.1388 8.04869 9.22404C8.13393 9.30929 8.18182 9.4249 8.18182 9.54545C8.18182 9.66601 8.13393 9.78162 8.04869 9.86687C7.96344 9.95211 7.84783 10 7.72727 10Z" fill="white"/>
</svg>
