<svg width="21" height="17" viewBox="0 0 21 17" fill="none" xmlns="http://www.w3.org/2000/svg">
<path fill-rule="evenodd" clip-rule="evenodd" d="M19 7C19.5523 7 20 6.55228 20 6V1C20 0.447715 19.5523 0 19 0H1C0.447716 0 0 0.447715 0 1V12C0 12.5523 0.447716 13 1 13H3C3.55228 13 4 12.5523 4 12C4 11.4477 3.55228 11 3 11C2.44772 11 2 10.5523 2 10V3C2 2.44772 2.44772 2 3 2H17C17.5523 2 18 2.44772 18 3V6C18 6.55228 18.4477 7 19 7ZM15 14C15.5523 14 16 14.4477 16 15V15.5858C16 16.4767 17.0771 16.9229 17.7071 16.2929L20.2929 13.7071C20.6834 13.3166 20.6834 12.6834 20.2929 12.2929L17.7071 9.7071C17.0771 9.07714 16 9.52331 16 10.4142V11C16 11.5523 15.5523 12 15 12H11C9.346 12 8 10.654 8 9V8C8 7.44772 7.55229 7 7 7C6.44771 7 6 7.44772 6 8V9C6 11.757 8.243 14 11 14H15Z" fill="#9A9DAB"/>
</svg>
