<svg width="10" height="8" viewBox="0 0 10 8" fill="none" xmlns="http://www.w3.org/2000/svg">
<path d="M0.73171 2.74628C0.73171 3.21749 0 3.21749 0 2.74628V0.358274C0 0.160394 0.163816 0 0.365916 0H9.63421C9.83618 0 10 0.160394 10 0.358274V2.62686C10 3.09807 9.26829 3.09807 9.26829 2.62686V0.716427H0.73171V2.74628ZM3.64972 5.36197C3.3265 5.01595 3.86384 4.53477 4.18706 4.88067L4.63421 5.35957V2.85441C4.63421 2.3832 5.36604 2.3832 5.36604 2.85441V5.35957L5.81307 4.88067C6.13628 4.53477 6.67362 5.01595 6.35041 5.36197L5.27266 6.51632C5.12958 6.67384 4.87741 6.67672 4.73139 6.52041L3.64972 5.36197ZM1.61582 1.13429H8.38418C8.58615 1.13429 8.74997 1.29469 8.74997 1.49245V7.64173C8.74997 7.83961 8.58615 8 8.38418 8H1.61582C1.41385 8 1.25003 7.83961 1.25003 7.64173V1.49245C1.25003 1.29469 1.41385 1.13429 1.61582 1.13429ZM8.01826 1.85072H1.98174V7.28357H8.01826V1.85072Z" fill="white"/>
</svg>
