<svg width="21" height="18" viewBox="0 0 21 18" fill="none" xmlns="http://www.w3.org/2000/svg">
<path d="M1.53659 6.17914C1.53659 7.23936 0 7.23936 0 6.17914V0.806115C0 0.360887 0.344013 0 0.768425 0H20.2318C20.656 0 21 0.360887 21 0.806115V5.91043C21 6.97065 19.4634 6.97065 19.4634 5.91043V1.61196H1.53659V6.17914ZM7.66441 12.0644C6.98566 11.2859 8.11407 10.2032 8.79282 10.9815L9.73183 12.059V6.42243C9.73183 5.36221 11.2687 5.36221 11.2687 6.42243V12.059L12.2074 10.9815C12.8862 10.2032 14.0146 11.2859 13.3359 12.0644L11.0726 14.6617C10.7721 15.0161 10.2426 15.0226 9.93592 14.6709L7.66441 12.0644ZM3.39323 2.55216H17.6068C18.0309 2.55216 18.3749 2.91304 18.3749 3.358V17.1939C18.3749 17.6391 18.0309 18 17.6068 18H3.39323C2.96908 18 2.62506 17.6391 2.62506 17.1939V3.358C2.62506 2.91304 2.96908 2.55216 3.39323 2.55216ZM16.8383 4.16412H4.16166V16.388H16.8383V4.16412Z" fill="#9A9DAB"/>
</svg>
