<svg width="19" height="16" viewBox="0 0 19 16" fill="none" xmlns="http://www.w3.org/2000/svg">
<path d="M1.39025 5.49257C1.39025 6.43499 0 6.43499 0 5.49257V0.716547C0 0.320788 0.31125 0 0.695241 0H18.305C18.6887 0 19 0.320788 19 0.716547V5.25372C19 6.19614 17.6097 6.19614 17.6097 5.25372V1.43285H1.39025V5.49257ZM6.93446 10.7239C6.32035 10.0319 7.3413 9.06953 7.95541 9.76133L8.80499 10.7191V5.70883C8.80499 4.76641 10.1955 4.76641 10.1955 5.70883V10.7191L11.0448 9.76133C11.6589 9.06953 12.6799 10.0319 12.0658 10.7239L10.0181 13.0326C9.7462 13.3477 9.26709 13.3534 8.98964 13.0408L6.93446 10.7239ZM3.07007 2.26858H15.9299C16.3137 2.26858 16.6249 2.58937 16.6249 2.98489V15.2835C16.6249 15.6792 16.3137 16 15.9299 16H3.07007C2.68631 16 2.37506 15.6792 2.37506 15.2835V2.98489C2.37506 2.58937 2.68631 2.26858 3.07007 2.26858ZM15.2347 3.70144H3.76531V14.5671H15.2347V3.70144Z" fill="#1F1E25"/>
</svg>
