<svg width="22" height="22" viewBox="0 0 22 22" fill="none" xmlns="http://www.w3.org/2000/svg">
<path d="M21.9675 4.70076C21.9514 4.64039 21.9294 4.58245 21.901 4.52696C21.8959 4.51767 21.8902 4.50863 21.8851 4.4991C21.8553 4.44605 21.8208 4.39594 21.7807 4.34999C21.7776 4.34632 21.7754 4.34216 21.7719 4.3385C21.7289 4.29108 21.6798 4.24952 21.627 4.21188C21.6214 4.20772 21.6172 4.2021 21.6113 4.19794C21.6062 4.19477 21.6006 4.1933 21.5959 4.19012C21.5483 4.15908 21.4984 4.13097 21.4439 4.10921L11.3288 0.063433C11.1178 -0.0211443 10.8824 -0.0211443 10.6715 0.063433L0.556356 4.10946C0.501844 4.13121 0.451978 4.15932 0.404311 4.19037C0.399422 4.19379 0.3938 4.19525 0.388911 4.19819C0.383044 4.20234 0.378889 4.20797 0.373267 4.21212C0.320467 4.24952 0.271333 4.29108 0.228311 4.33874C0.224889 4.34216 0.222444 4.34632 0.219267 4.34999C0.179178 4.39594 0.144711 4.4463 0.114889 4.4991C0.109756 4.50863 0.103889 4.51767 0.0990001 4.52696C0.0706445 4.58245 0.0486444 4.64039 0.0325111 4.70076C0.0290889 4.71298 0.0268889 4.72521 0.0239556 4.73743C0.00953335 4.8005 0 4.86454 0 4.93127V17.0688C0 17.4309 0.220244 17.7562 0.556356 17.8907L10.6712 21.9367C10.6803 21.9406 10.6898 21.9416 10.6988 21.9448C10.7336 21.9572 10.7683 21.9672 10.804 21.9756C10.8191 21.979 10.8338 21.9829 10.8489 21.9856C10.899 21.9944 10.9494 22 11 22C11.0506 22 11.101 21.9944 11.1511 21.9856C11.1662 21.9829 11.1809 21.979 11.196 21.9756C11.2317 21.9672 11.2664 21.9572 11.3012 21.9448C11.3102 21.9413 11.3197 21.9404 11.3288 21.9367L21.4436 17.8907C21.7798 17.7562 22 17.4311 22 17.0688V4.93127C22 4.86478 21.9905 4.8005 21.976 4.73767C21.9734 4.72521 21.9709 4.71298 21.9675 4.70076ZM11 8.02372L3.26798 4.93127L11 1.83858L18.732 4.93127L11 8.02372ZM20.23 16.47L11.8851 19.8076V9.57642L20.23 6.23855V16.47Z" fill="url(#paint0_linear_281_152)"/>
<defs>
<linearGradient id="paint0_linear_281_152" x1="19.4995" y1="5.98353" x2="-0.13297" y2="6.29694" gradientUnits="userSpaceOnUse">
<stop stop-color="#51ECF1"/>
<stop offset="1" stop-color="#7F9EFE"/>
</linearGradient>
</defs>
</svg>
