<svg width="42" height="42" viewBox="0 0 42 42" fill="none" xmlns="http://www.w3.org/2000/svg">
<circle cx="21" cy="21" r="21" fill="#3F1E6D"/>
<path d="M16.9091 11C13.65 11 11 13.65 11 16.9091V25.0909C11 28.35 13.65 31 16.9091 31H25.0909C28.35 31 31 28.35 31 25.0909V16.9091C31 13.65 28.35 11 25.0909 11H16.9091ZM26.4545 14.6364C26.9545 14.6364 27.3636 15.0455 27.3636 15.5455C27.3636 16.0455 26.9545 16.4545 26.4545 16.4545C25.9545 16.4545 25.5455 16.0455 25.5455 15.5455C25.5455 15.0455 25.9545 14.6364 26.4545 14.6364ZM21 16C23.7591 16 26 18.2409 26 21C26 23.7591 23.7591 26 21 26C18.2409 26 16 23.7591 16 21C16 18.2409 18.2409 16 21 16ZM21 16.9091C18.7455 16.9091 16.9091 18.7455 16.9091 21C16.9091 23.2545 18.7455 25.0909 21 25.0909C23.2545 25.0909 25.0909 23.2545 25.0909 21C25.0909 18.7455 23.2545 16.9091 21 16.9091Z" fill="white"/>
</svg>
