<svg width="19" height="19" viewBox="0 0 19 19" fill="none" xmlns="http://www.w3.org/2000/svg">
<path d="M16.625 3.5625V1.1875C16.625 0.531406 16.0936 0 15.4375 0H14.2494H3.56191C1.59422 0 0 1.596 0 3.5625V17.8125C0 18.4686 0.530812 19 1.18691 19H17.8125C18.4686 19 19 18.4686 19 17.8125V3.5625H16.625ZM3.56191 2.375H14.25V3.5625H2.37441C2.37441 2.90641 2.90581 2.375 3.56191 2.375ZM15.4375 11.875C14.7814 11.875 14.2494 11.3436 14.2494 10.6875C14.2494 10.0314 14.7814 9.5 15.4375 9.5C16.0936 9.5 16.625 10.0314 16.625 10.6875C16.625 11.3436 16.0936 11.875 15.4375 11.875Z" fill="url(#paint0_linear_281_20)"/>
<defs>
<linearGradient id="paint0_linear_281_20" x1="16.8405" y1="5.16759" x2="-0.114838" y2="5.43827" gradientUnits="userSpaceOnUse">
<stop stop-color="#51ECF1"/>
<stop offset="1" stop-color="#7F9EFE"/>
</linearGradient>
</defs>
</svg>
