<svg width="42" height="42" viewBox="0 0 42 42" fill="none" xmlns="http://www.w3.org/2000/svg">
<circle cx="21" cy="21" r="21" fill="#3F1E6D"/>
<path d="M30.4138 15.75C30.2197 14.6504 29.2947 13.8496 28.2213 13.5996C26.615 13.25 23.6422 13 20.4258 13C17.2113 13 14.1909 13.25 12.5827 13.5996C11.5111 13.8496 10.5843 14.5996 10.3902 15.75C10.1941 17 10 18.75 10 21C10 23.25 10.1941 25 10.4377 26.25C10.6338 27.3496 11.5587 28.1504 12.6302 28.4004C14.3355 28.75 17.2588 29 20.4753 29C23.6917 29 26.615 28.75 28.3203 28.4004C29.3918 28.1504 30.3167 27.4004 30.5128 26.25C30.7069 25 30.9505 23.1992 31 21C30.901 18.75 30.6574 17 30.4138 15.75ZM17.7955 24.5V17.5L23.7393 21L17.7955 24.5Z" fill="white"/>
</svg>
