<svg width="404" height="110" viewBox="0 0 404 110" fill="none" xmlns="http://www.w3.org/2000/svg">
<path d="M30.0056 1.80469C29.4362 2.77864 28.2976 4.8125 27.4721 6.30208C26.6181 7.79166 25.3656 9.99739 24.6824 11.1719C23.9708 12.3464 23.0883 13.8932 22.6898 14.6094C21.0673 17.5312 17.0251 24.7214 15.0894 28.0729C13.9793 30.0495 11.3035 34.7474 9.14005 38.5286C7.00511 42.3099 5.12636 45.6042 4.98403 45.8333C4.50011 46.6068 1.56812 51.9062 1.56812 52.0208C1.56812 52.0781 1.16959 52.7656 0.685673 53.5677C-0.339099 55.2292 -0.310634 55.401 1.42579 58.2943C2.0805 59.3828 3.30454 61.5312 4.15851 63.0208C4.98403 64.5104 5.75261 65.7995 5.838 65.8854C5.9234 65.9714 6.12266 66.2865 6.29346 66.6016C6.69198 67.3464 16.285 84.1615 17.3098 85.8802C17.7368 86.625 18.2207 87.4844 18.363 87.7995C18.5338 88.1146 18.7615 88.5729 18.9323 88.8021C19.4162 89.5469 22.9176 95.7057 22.9176 95.8203C22.9176 95.8776 23.5438 96.9375 24.2839 98.1693C25.024 99.401 26.8458 102.552 28.3261 105.188L31.0303 110H53.2622H75.4941L76.0349 108.911C76.3196 108.339 76.8035 107.536 77.0882 107.164C77.3444 106.792 77.5721 106.247 77.5721 105.961C77.5721 105.703 77.686 105.417 77.7998 105.359C78.056 105.273 79.4793 102.695 81.785 98.2552C82.639 96.5938 83.493 95.0755 83.6638 94.8464C83.8346 94.6172 84.717 93.0703 85.5995 91.4089C88.1329 86.5964 89.1008 84.849 90.8657 81.6406L92.5452 78.6328L101.341 78.4896L110.166 78.3464L111.475 76.3411C112.187 75.224 113.154 73.6771 113.61 72.875C115.631 69.2943 117.054 66.9167 117.652 66.0573C117.994 65.5703 118.364 64.9401 118.449 64.6536C118.563 64.3958 118.734 64.1667 118.876 64.1667C119.018 64.1667 119.132 64.0521 119.132 63.9089C119.132 63.7656 119.588 62.8203 120.186 61.8177C120.755 60.8438 121.41 59.612 121.666 59.1536C121.922 58.6667 122.548 57.6927 123.061 56.9479L124 55.6016L123.203 54.112C122.776 53.3099 122.178 52.25 121.922 51.763C121.666 51.2474 121.324 50.7031 121.21 50.5599C121.096 50.388 120.613 49.5573 120.157 48.6979C119.702 47.8385 119.189 46.9219 119.018 46.6927C118.848 46.4635 118.392 45.6615 117.994 44.888C117.624 44.1432 117.197 43.5417 117.054 43.5417C116.94 43.5417 116.912 43.3984 116.997 43.2552C117.083 43.0833 117.026 42.9688 116.855 42.9688C116.684 42.9688 116.627 42.8255 116.713 42.6823C116.798 42.5104 116.77 42.3958 116.627 42.3958C116.457 42.3958 116.2 42.0521 116.03 41.5938C115.859 41.1641 115.432 40.3047 115.033 39.6745C114.663 39.0443 113.923 37.7552 113.439 36.8099C112.927 35.8646 112.073 34.3464 111.503 33.4297L110.507 31.7969H79.5932C62.599 31.7969 48.5369 31.9115 48.3945 32.026C48.0245 32.2839 46.4873 34.6615 46.6866 34.6615C46.772 34.6615 46.6012 34.9479 46.2596 35.2917C45.9465 35.6354 45.6903 36.0365 45.6903 36.1797C45.6903 36.3229 45.0071 37.612 44.1531 39.0729C40.5949 45.1458 39.9686 46.2917 39.9402 46.5495C39.9117 46.6927 39.6555 47.0938 39.3708 47.3802C39.0862 47.6953 38.8585 48.0964 38.8585 48.2969C38.8585 48.4974 38.6877 48.8411 38.5169 49.0417C38.1183 49.4714 37.7198 50.1302 36.7235 52.0208C36.3819 52.6797 35.898 53.5104 35.6418 53.8828C35.3572 54.2552 35.1579 54.7995 35.1579 55.0859C35.1579 55.6016 36.1542 57.4635 38.2037 60.8151C38.7161 61.6458 39.5132 63.0208 39.9971 63.8802C40.481 64.7396 41.1357 65.9141 41.5058 66.4583C41.8474 67.0312 42.6444 68.3776 43.2707 69.4375C43.8969 70.526 45.3202 72.9036 46.4019 74.737L48.423 78.0599L53.063 78.1458C58.2722 78.2318 58.0445 78.2891 59.2685 76.0547C60.2364 74.1927 61.4889 71.901 62.6844 69.7526C63.2822 68.6354 64.1646 66.974 64.6201 66.0286C65.104 65.0833 65.6449 64.138 65.8441 63.9375C66.0434 63.7083 66.1857 63.3073 66.1288 63.0495C66.0434 62.6484 65.4172 62.5625 61.7735 62.4479C59.4108 62.362 57.3044 62.1615 57.0766 62.0182C56.3935 61.5599 51.6681 55.8594 51.6681 55.487C51.6681 55.2005 54.0593 51.1615 56.3935 47.4661L57.0766 46.4062H79.6501H102.252L102.85 47.0651C103.191 47.4375 103.476 47.8672 103.476 48.0104C103.476 48.1823 103.704 48.5547 103.988 48.8698C104.245 49.1562 104.871 49.987 105.326 50.6745C105.81 51.362 106.465 52.3359 106.807 52.8229C107.575 53.9401 107.604 54.9427 106.892 55.8594C106.579 56.2604 106.323 56.7188 106.323 56.9193C106.323 57.0911 106.01 57.6354 105.611 58.0938C105.213 58.5807 104.899 59.0391 104.899 59.1536C104.899 59.2682 104.643 59.7266 104.302 60.1849C103.988 60.6432 103.789 61.0156 103.875 61.0156C103.96 61.0156 103.761 61.3307 103.419 61.7318L102.793 62.4479H93.6838H84.5462L84.1193 63.1068C83.7777 63.6797 82.696 65.599 80.5041 69.6094C80.1056 70.3255 79.3085 71.7578 78.7107 72.7891C78.0845 73.8203 77.5721 74.8516 77.5152 75.0807C77.4582 75.3099 77.3444 75.5391 77.259 75.625C77.1736 75.7109 76.6043 76.6562 76.0065 77.7734C75.4087 78.862 74.8394 79.8932 74.7255 80.0651C74.6116 80.2083 74.0708 81.1823 73.5015 82.2135C72.9606 83.2448 71.8504 85.2786 71.0534 86.7396C70.2564 88.2005 69.6016 89.5182 69.6016 89.6901C69.6016 89.8333 69.5162 89.9479 69.4024 89.9479C69.26 89.9479 68.7192 90.8359 68.1783 91.8958C67.6375 92.9557 67.0682 93.9297 66.8974 94.0443C66.5558 94.3021 39.9402 94.1302 39.4847 93.8438C39.1716 93.6432 38.3176 92.2396 36.3535 88.5156C35.6703 87.1693 34.9017 85.8802 34.7024 85.6224C34.4747 85.3932 34.3039 85.1068 34.3039 85.0208C34.3039 84.8776 33.4499 83.2734 30.1194 77.3438C29.0093 75.3672 27.7283 73.0469 27.2728 72.1875C26.7889 71.3281 25.7926 69.5234 25.0525 68.1771C19.1885 57.7214 18.0783 55.6302 18.0783 55.0859C18.0783 54.7995 18.6477 53.5391 19.3593 52.3073C20.071 51.0469 20.6403 50.0156 20.6403 49.987C20.6403 49.9297 23.5723 44.5729 25.1948 41.6797C27.8991 36.8099 30.034 32.7708 30.034 32.4557C30.034 32.2839 30.1479 32.0833 30.2618 32.026C30.6603 31.8542 33.5638 26.6406 33.2507 26.6406C33.1368 26.6406 33.1653 26.526 33.3076 26.4115C33.6492 26.1823 38.0045 18.5339 38.0045 18.1901C38.0045 18.0469 38.3176 17.5312 38.7446 16.987L39.4562 16.0417H70.2848C97.4413 16.0417 101.17 15.9844 101.313 15.612C101.483 15.125 101.256 14.3229 100.914 14.3229C100.8 14.3229 100.544 13.9792 100.373 13.5208C100.202 13.0911 99.804 12.3464 99.5193 11.8307C99.2062 11.3438 98.4091 9.91145 97.7544 8.67969C97.0997 7.44791 96.445 6.38802 96.3311 6.35938C96.1888 6.30208 96.1319 6.1302 96.2457 5.98698C96.3311 5.84375 96.2457 5.72916 96.1034 5.72916C95.9326 5.72916 95.7903 5.47135 95.7903 5.18489C95.7903 4.86979 95.6764 4.55469 95.5341 4.46875C95.3918 4.38281 94.737 3.35156 94.0539 2.14844L92.8298 0H61.9443H31.0303L30.0056 1.80469Z" fill="url(#paint0_linear_12_11)"/>
<path d="M219.856 33.116L224.464 15.476H229.54L222.484 41H217.372L211.54 22.82L205.708 41H200.524L193.432 15.476H198.688L203.368 33.044L209.02 15.476H214.168L219.856 33.116ZM234.661 30.128H242.581C242.509 28.364 241.357 26.636 238.621 26.636C236.137 26.636 234.769 28.508 234.661 30.128ZM243.049 34.736L247.045 35.924C246.145 38.984 243.337 41.54 238.981 41.54C234.121 41.54 229.837 38.048 229.837 32.072C229.837 26.42 234.013 22.748 238.549 22.748C244.021 22.748 247.297 26.24 247.297 31.928C247.297 32.612 247.225 33.332 247.225 33.404H234.553C234.661 35.744 236.641 37.436 239.017 37.436C241.249 37.436 242.473 36.32 243.049 34.736ZM255.856 41H251.068V14.936H255.856V41ZM268.938 27.176C266.49 27.176 264.438 28.94 264.438 32.144C264.438 35.348 266.526 37.148 268.974 37.148C271.422 37.148 272.646 35.528 273.042 34.16L277.254 35.564C276.462 38.516 273.69 41.54 268.974 41.54C263.754 41.54 259.65 37.58 259.65 32.144C259.65 26.672 263.682 22.748 268.83 22.748C273.654 22.748 276.39 25.736 277.146 28.724L272.862 30.164C272.43 28.688 271.314 27.176 268.938 27.176ZM288.555 37.184C290.895 37.184 293.055 35.492 293.055 32.144C293.055 28.796 290.895 27.104 288.555 27.104C286.215 27.104 284.055 28.796 284.055 32.144C284.055 35.456 286.215 37.184 288.555 37.184ZM288.555 22.748C293.847 22.748 297.843 26.672 297.843 32.144C297.843 37.58 293.847 41.54 288.555 41.54C283.263 41.54 279.267 37.58 279.267 32.144C279.267 26.672 283.263 22.748 288.555 22.748ZM306.41 41H301.622V23.288H306.194V25.448C307.166 23.72 309.434 22.784 311.378 22.784C313.79 22.784 315.734 23.828 316.634 25.736C318.038 23.576 319.91 22.784 322.25 22.784C325.526 22.784 328.658 24.764 328.658 29.516V41H324.014V30.488C324.014 28.58 323.078 27.14 320.882 27.14C318.83 27.14 317.606 28.724 317.606 30.632V41H312.854V30.488C312.854 28.58 311.882 27.14 309.722 27.14C307.634 27.14 306.41 28.688 306.41 30.632V41ZM337.001 30.128H344.921C344.849 28.364 343.697 26.636 340.961 26.636C338.477 26.636 337.109 28.508 337.001 30.128ZM345.389 34.736L349.385 35.924C348.485 38.984 345.677 41.54 341.321 41.54C336.461 41.54 332.177 38.048 332.177 32.072C332.177 26.42 336.353 22.748 340.889 22.748C346.361 22.748 349.637 26.24 349.637 31.928C349.637 32.612 349.565 33.332 349.565 33.404H336.893C337.001 35.744 338.981 37.436 341.357 37.436C343.589 37.436 344.813 36.32 345.389 34.736ZM368.206 17.996V23.288H371.77V27.536H368.206V34.952C368.206 36.5 368.926 37.004 370.294 37.004C370.87 37.004 371.518 36.932 371.77 36.86V40.82C371.338 41 370.474 41.252 369.07 41.252C365.614 41.252 363.454 39.2 363.454 35.78V27.536H360.25V23.288H361.15C363.022 23.288 363.886 22.064 363.886 20.48V17.996H368.206ZM383.617 37.184C385.957 37.184 388.117 35.492 388.117 32.144C388.117 28.796 385.957 27.104 383.617 27.104C381.277 27.104 379.117 28.796 379.117 32.144C379.117 35.456 381.277 37.184 383.617 37.184ZM383.617 22.748C388.909 22.748 392.905 26.672 392.905 32.144C392.905 37.58 388.909 41.54 383.617 41.54C378.325 41.54 374.329 37.58 374.329 32.144C374.329 26.672 378.325 22.748 383.617 22.748Z" fill="white"/>
<path d="M219.028 86H214.996L214.672 83.084C213.52 84.812 211 86.54 207.148 86.54C200.272 86.54 194.404 81.5 194.404 73.256C194.404 65.012 200.56 59.936 207.472 59.936C214.168 59.936 217.876 63.86 219.136 67.784L214.384 69.476C213.736 67.208 211.612 64.58 207.472 64.58C203.62 64.58 199.444 67.208 199.444 73.256C199.444 79.016 203.224 82.004 207.508 82.004C212.224 82.004 214.06 78.836 214.348 77.036H206.284V72.716H219.028V86ZM242.446 65.192H234.382V86H229.378V65.192H221.314V60.476H242.446V65.192ZM258.543 86L253.539 76.172H250.947V86H245.943V60.476H255.915C260.883 60.476 264.051 63.896 264.051 68.324C264.051 71.888 261.963 74.588 258.615 75.56L264.087 86H258.543ZM250.947 71.888H254.979C257.499 71.888 258.975 70.448 258.975 68.36C258.975 66.2 257.499 64.796 254.979 64.796H250.947V71.888ZM271.904 73.22C271.904 78.98 275.936 81.716 279.86 81.716C283.82 81.716 287.852 78.98 287.852 73.22C287.852 67.46 283.82 64.724 279.86 64.724C275.936 64.724 271.904 67.46 271.904 73.22ZM266.756 73.256C266.756 65.012 272.948 59.936 279.86 59.936C286.808 59.936 293 65.012 293 73.256C293 81.464 286.808 86.54 279.86 86.54C272.948 86.54 266.756 81.464 266.756 73.256ZM319.087 86H313.867L302.275 67.892V86H297.307V60.476H303.499L314.119 77.36V60.476H319.087V86Z" fill="#51ECF1"/>
<defs>
<linearGradient id="paint0_linear_12_11" x1="121.222" y1="49.8484" x2="15.4244" y2="82.9117" gradientUnits="userSpaceOnUse">
<stop stop-color="#51EBEE"/>
<stop offset="1" stop-color="#7E9AF9"/>
</linearGradient>
</defs>
</svg>
