<svg width="22" height="22" viewBox="0 0 22 22" fill="none" xmlns="http://www.w3.org/2000/svg">
<path d="M16.9008 1.667C16.6743 1.5249 16.4447 1.39571 16.2086 1.27299L16.1212 1.22455L16.0242 1.17934C13.4924 -0.0936924 10.5676 -0.346842 7.85415 0.472214C5.14075 1.29127 2.84626 3.11991 1.44496 5.58016C0.0436542 8.0404 -0.357329 10.9442 0.324893 13.6912C1.00711 16.4383 2.72038 18.8186 5.11056 20.3402C5.34992 20.4888 5.59252 20.6277 5.84158 20.7568L5.88364 20.7794L5.9645 20.815C8.49474 22.0909 11.4192 22.3474 14.1335 21.5315C16.8478 20.7156 19.1444 18.8897 20.5486 16.4312C21.9528 13.9726 22.3572 11.0694 21.6783 8.32162C20.9994 5.57381 19.289 3.19146 16.9008 1.667ZM20.0933 7.48018L18.7704 6.80197C18.7704 6.65987 18.7704 6.51777 18.751 6.3789C18.7184 5.85044 18.6426 5.32552 18.5245 4.80934C19.1866 5.61412 19.7161 6.51894 20.0933 7.48987V7.48018ZM5.83188 9.23059L10.0369 11.4331L7.44919 16.3582L4.49922 14.8177C4.54491 12.8825 4.99902 10.9786 5.83188 9.23059ZM10.1275 3.74036L13.2327 5.35514L10.645 10.2802L6.41088 8.09379C7.33471 6.40626 8.5952 4.92572 10.1145 3.74359L10.1275 3.74036ZM14.9179 2.12559L13.8182 4.21834L11.3469 2.92652C12.6731 2.19341 13.9184 1.92213 14.905 2.14497L14.9179 2.12559ZM6.86696 17.5047L5.94833 19.2583C5.27876 18.6447 4.81297 17.6436 4.6189 16.3291L6.86696 17.5047ZM7.09339 19.859L8.01525 18.1054L10.2795 19.2809C9.08591 19.8623 7.98291 20.0625 7.09339 19.859ZM8.61042 16.9524L11.1981 12.0274L15.4193 14.2299C14.4502 15.9041 13.1387 17.3556 11.5701 18.4897L8.61042 16.9524ZM11.7868 10.8809L14.3745 5.95583L17.4862 7.5706C17.385 9.49361 16.8896 11.3754 16.0307 13.0996L11.7868 10.8809ZM14.9632 4.80934L16.0501 2.73275C16.7973 3.41095 17.2889 4.58974 17.4442 6.10116L14.9632 4.80934ZM11.7836 1.29237C11.2906 1.49014 10.8146 1.72776 10.3604 2.00287C10.2407 2.07715 10.121 2.15143 10.0013 2.22894L8.68159 1.54104C9.44267 1.35427 10.2235 1.25993 11.0073 1.26007C11.2628 1.26007 11.5248 1.27299 11.7836 1.29237ZM7.00282 2.11913L8.85626 3.088C7.39945 4.32119 6.18048 5.80967 5.25935 7.48018L2.59726 6.08501C3.61839 4.33894 5.15796 2.95302 7.00282 2.11913ZM2.00209 7.23796L4.67065 8.62989C3.85489 10.366 3.37111 12.239 3.24418 14.1524L1.5266 13.2611C1.03666 11.2542 1.20329 9.14341 2.00209 7.23796ZM2.13471 15.0341L3.24418 15.6122C3.27699 16.1395 3.35272 16.6634 3.47061 17.1785C2.93449 16.5242 2.48546 15.8034 2.13471 15.0341ZM10.2213 20.7116C10.7176 20.5143 11.1968 20.2767 11.6542 20.0011L12.7799 20.5889C11.9352 20.7435 11.0738 20.7858 10.218 20.7148L10.2213 20.7116ZM14.5815 20.0657L12.851 19.1614C14.3497 17.9637 15.6113 16.4971 16.5708 14.8371L19.2394 16.229C18.1284 17.9713 16.4916 19.3159 14.5654 20.0689L14.5815 20.0657ZM19.9963 14.7983C19.9543 14.8984 19.9057 14.9986 19.8605 15.0954L17.1822 13.7003C18.0304 11.9909 18.5588 10.1413 18.7413 8.24235L20.585 9.21121C20.9483 11.0907 20.7434 13.0355 19.9963 14.7983Z" fill="white"/>
</svg>
