<svg width="42" height="42" viewBox="0 0 42 42" fill="none" xmlns="http://www.w3.org/2000/svg">
<circle cx="21" cy="21" r="21" fill="#3F1E6D"/>
<path d="M21 8C13.8205 8 8 13.8504 8 21.0668C8 27.618 12.8011 33.0271 19.0571 33.9721V24.5301H15.8408V21.0953H19.0571V18.8098C19.0571 15.0258 20.8913 13.3645 24.0201 13.3645C25.5187 13.3645 26.3111 13.4762 26.6863 13.5273V16.5255H24.552C23.2236 16.5255 22.7597 17.7912 22.7597 19.2179V21.0953H26.6526L26.1244 24.5301H22.7597V34C29.1049 33.1346 34 27.6816 34 21.0668C34 13.8504 28.1795 8 21 8Z" fill="white"/>
</svg>
