<svg width="42" height="42" viewBox="0 0 42 42" fill="none" xmlns="http://www.w3.org/2000/svg">
<circle cx="21" cy="21" r="21" fill="#3F1E6D"/>
<path d="M29.6223 12.2474C29.2812 11.9612 28.7453 11.9203 28.1913 12.1403H28.1904C27.6077 12.3716 11.6961 19.1235 11.0484 19.3993C10.9306 19.4398 9.90166 19.8196 10.0076 20.6656C10.1023 21.4284 10.9292 21.7443 11.0302 21.7807L15.0754 23.151C15.3438 24.0348 16.3331 27.2955 16.5519 27.9921C16.6884 28.4263 16.9108 28.9969 17.3007 29.1144C17.6427 29.2449 17.983 29.1256 18.2031 28.9546L20.6763 26.6853L24.6687 29.7655L24.7638 29.8218C25.0349 29.9406 25.2946 30 25.5425 30C25.7341 30 25.9178 29.9645 26.0934 29.8934C26.6916 29.6503 26.9308 29.0865 26.9558 29.0226L29.938 13.6879C30.12 12.8689 29.8671 12.4522 29.6223 12.2474ZM18.643 23.6991L17.2784 27.2991L15.9137 22.7991L26.3759 15.1491L18.643 23.6991Z" fill="white"/>
</svg>
