<svg width="42" height="42" viewBox="0 0 42 42" fill="none" xmlns="http://www.w3.org/2000/svg">
<circle cx="21" cy="21" r="21" fill="#3F1E6D"/>
<path d="M31 14.0119C30.2627 14.3543 29.4724 14.5842 28.6416 14.6885C29.4896 14.157 30.1411 13.3157 30.4467 12.3147C29.6548 12.8054 28.7741 13.1625 27.8405 13.3548C27.0923 12.5201 26.0261 12 24.8462 12C22.5798 12 20.742 13.9206 20.742 16.2912C20.742 16.627 20.7794 16.9547 20.8496 17.2694C17.4391 17.0901 14.4167 15.3814 12.3919 12.7842C12.0381 13.4201 11.837 14.157 11.837 14.9428C11.837 16.4314 12.5603 17.7455 13.6623 18.5166C12.9889 18.4938 12.3561 18.2998 11.8027 17.9786C11.8027 17.9965 11.8027 18.0145 11.8027 18.0324C11.8027 20.1128 13.2181 21.8459 15.0932 22.2421C14.7503 22.3399 14.3871 22.3921 14.013 22.3921C13.748 22.3921 13.4908 22.366 13.2399 22.3138C13.7636 24.0176 15.2787 25.2615 17.0728 25.2958C15.6699 26.4468 13.9008 27.1316 11.9773 27.1316C11.6453 27.1316 11.3195 27.112 11 27.0713C12.8144 28.2908 14.9716 29 17.2895 29C24.8368 29 28.9643 22.4605 28.9643 16.7901C28.9643 16.6042 28.9596 16.4167 28.9534 16.2341C29.7546 15.6292 30.4498 14.8727 31 14.0119Z" fill="white"/>
</svg>
